<svg xmlns="http://www.w3.org/2000/svg" version="1.1" xmlns:xlink="http://www.w3.org/1999/xlink" xmlns:svgjs="http://svgjs.com/svgjs" width="1440" height="560" preserveAspectRatio="none" viewBox="0 0 1440 560"><g mask="url(&quot;#SvgjsMask1001&quot;)" fill="none"><rect width="1440" height="560" x="0" y="0" fill="rgba(255, 255, 255, 1)"></rect><path d="M 0,128 C 57.6,140 172.8,189.8 288,188 C 403.2,186.2 460.8,112.4 576,119 C 691.2,125.6 748.8,229.2 864,221 C 979.2,212.8 1036.8,78.4 1152,78 C 1267.2,77.6 1382.4,190.8 1440,219L1440 560L0 560z" fill="#184a7e"></path><path d="M 0,398 C 96,426 288,560.2 480,538 C 672,515.8 768,291.2 960,287 C 1152,282.8 1344,471 1440,517L1440 560L0 560z" fill="#2264ab"></path></g><defs><mask id="SvgjsMask1001"><rect width="1440" height="560" fill="#ffffff"></rect></mask></defs></svg>